<svg id="Calque_1" data-name="Calque 1" xmlns="http://www.w3.org/2000/svg" viewBox="0 0 891.64 214.69"><defs><style>.cls-1{fill:#1bc74e;}.cls-2{fill:#fff;}</style></defs><title>iadvize-long-multi-white</title><g id="_Groupe_" data-name="&lt;Groupe&gt;"><g id="_Groupe_2" data-name="&lt;Groupe&gt;"><path id="_Tracé_" data-name="&lt;Tracé&gt;" class="cls-1" d="M140,235.25c-20.81-25.56-30.1-60.87-19.92-98a104.16,104.16,0,0,1,71.69-72.56C264.55,43.92,330.63,98,330.63,167.52a107.34,107.34,0,0,1-104,107.29l0,0.06H127.65a6.18,6.18,0,0,1-5.34-9.3Z" transform="translate(-115.94 -60.18)"/></g><g id="_Groupe_3" data-name="&lt;Groupe&gt;"><path id="_Tracé_2" data-name="&lt;Tracé&gt;" class="cls-2" d="M370.6,127.09a15.83,15.83,0,0,1,15.61,15.61c0,8.33-7,15.09-15.61,15.09a15.27,15.27,0,0,1-15.09-15.09C355.51,134.38,362.53,127.09,370.6,127.09Z" transform="translate(-115.94 -60.18)"/><path id="_Tracé_3" data-name="&lt;Tracé&gt;" class="cls-2" d="M357.85,183.29a12.49,12.49,0,1,1,25,0v79.09a12.49,12.49,0,0,1-25,0V183.29Z" transform="translate(-115.94 -60.18)"/><path id="_Tracé_transparent_" data-name="&lt;Tracé transparent&gt;" class="cls-2" d="M475.45,131.78l64.26,125.14a12.8,12.8,0,0,1,1.3,5.2c0,7-5.2,12.75-12.23,12.75a11.81,11.81,0,0,1-11.19-6.76l-14-26.28h-70l-14.31,26.28a11.81,11.81,0,0,1-11.19,6.76c-7,0-12.23-5.72-12.23-12.75a12.79,12.79,0,0,1,1.3-5.2L461.4,131.78A7.61,7.61,0,0,1,475.45,131.78Zm-30.18,88.46h46.57L468.42,177Z" transform="translate(-115.94 -60.18)"/><path id="_Tracé_transparent_2" data-name="&lt;Tracé transparent&gt;" class="cls-2" d="M706.22,271.23l-44.75-82.73a10.32,10.32,0,0,1-1-5.2,12.33,12.33,0,0,1,12.49-12.49c5.2,0,8.85,2.08,11.19,6.5l27.58,52,27.58-52c2.34-4.42,6-6.5,11.19-6.5a12.33,12.33,0,0,1,12.49,12.49,10.32,10.32,0,0,1-1,5.2l-44.75,82.73c-0.78,2.34-2.6,3.64-5.46,3.64S707,273.57,706.22,271.23Z" transform="translate(-115.94 -60.18)"/><path id="_Tracé_transparent_3" data-name="&lt;Tracé transparent&gt;" class="cls-2" d="M788.73,127.09a15.83,15.83,0,0,1,15.61,15.61c0,8.33-7,15.09-15.61,15.09a15.27,15.27,0,0,1-15.09-15.09C773.64,134.38,780.66,127.09,788.73,127.09ZM776,183.29a12.49,12.49,0,1,1,25,0v79.09a12.49,12.49,0,0,1-25,0V183.29Z" transform="translate(-115.94 -60.18)"/><path id="_Tracé_transparent_4" data-name="&lt;Tracé transparent&gt;" class="cls-2" d="M819.95,274.87c-2.34,0-4.68-2.6-4.68-5.72,0-.78.26-1.3,0.26-2.08l45.79-73.37H825.15A11.1,11.1,0,0,1,814,182.51a11.39,11.39,0,0,1,11.19-11.71h69.72c2.34,0,4.68,2.6,4.68,5.72,0,0.78-.26,1.3-0.26,2.08l-46.05,74.15h36.42a10.67,10.67,0,0,1,10.93,10.93,10.89,10.89,0,0,1-10.93,11.19H819.95Z" transform="translate(-115.94 -60.18)"/><path id="_Tracé_transparent_5" data-name="&lt;Tracé transparent&gt;" class="cls-2" d="M955.72,274.36a51.6,51.6,0,1,1,51.85-51.43A12,12,0,0,1,995.87,235h-66c4.45,8,14.34,16.31,25.81,16.31a28.42,28.42,0,0,0,18.86-7.45,11.65,11.65,0,1,1,15.63,17.3A51.58,51.58,0,0,1,955.72,274.36ZM929.95,211h51.59C977,200,967,194.36,955.79,194.36,944.32,194.36,934.42,200,929.95,211Z" transform="translate(-115.94 -60.18)"/><path id="_Tracé_transparent_6" data-name="&lt;Tracé transparent&gt;" class="cls-2" d="M635,127.09c-7,0-12,5.95-12,13v38.85a52.84,52.84,0,0,0-28-8,51.7,51.7,0,1,0-.3,103.4,51.27,51.27,0,0,0,28.1-8.34A12.38,12.38,0,0,0,647,262.38V139.58C647,132.56,642,127.09,635,127.09ZM594.55,250a27.38,27.38,0,1,1,27.38-27.38A27.41,27.41,0,0,1,594.55,250Z" transform="translate(-115.94 -60.18)"/></g></g></svg>